# xmcd
#
# Track frame offsets:
#	150
#	16173
#	31996
#	45505
#	63117
#	81147
#	96603
#	111142
#	125047
#	140275
#	157313
#	173130
#	191842
#	202552
#	220862
#	239226
#	259241
#	268745
#
# Disc length: 3801 seconds
#
# Revision: 0
# Processed by: cddbd v1.5.2PL0 Copyright (c) Steve Scherf et al.
# Submitted via: dBpowerAMP V4.0
#
DISCID=070ed712
DTITLE=Various Artist - Colorado Blues Society - Compilation Trois
DYEAR=2007
DGENRE=Blues
TTITLE0=Chris Daniels - Howlin' At The Moon
TTITLE1=John Alex Mason - What Are You Hungry For
TTITLE2=Jennifer Lane - Bone Happy
TTITLE3=Clay Kirkland - I Lied
TTITLE4=Ash Ganley - Elysian Fields
TTITLE5=Dan Treanor and African Wind - From African Soul
TTITLE6=Jim Adam - Nothin' To Do
TTITLE7=Jill Watkins - Red Train
TTITLE8=Johnny O - Rocky Stream
TTITLE9=Jeff Finlin - West Of Rome
TTITLE10=Curly No Shoes, Jr. - Nuthin' But A Tear
TTITLE11=The South Platte River Rats - Hey Nick
TTITLE12=Junior Basco - I Need Room
TTITLE13=Michael Harrison Blues - In From The Storm
TTITLE14=Teresa Lynne - One More Lie
TTITLE15=Metro Blues - Too Much Of A Good Thing
TTITLE16=Mad Dog - Too Many Women Blues
TTITLE17=Erica Brown - I Spent A Month Here One Night
EXTD=
EXTT0=
EXTT1=
EXTT2=
EXTT3=
EXTT4=
EXTT5=
EXTT6=
EXTT7=
EXTT8=
EXTT9=
EXTT10=
EXTT11=
EXTT12=
EXTT13=
EXTT14=
EXTT15=
EXTT16=
EXTT17=
PLAYORDER=
